<svg width="99" height="26" viewBox="0 0 99 26" fill="none" xmlns="http://www.w3.org/2000/svg">
<path d="M4.34906 3.98244L11.2668 0L18.1846 3.98244L15.6413 5.45366L11.2668 2.94244L6.89235 5.45366L4.34906 3.98244ZM18.1846 9.00488L15.6413 7.53366L11.2668 10.0449L6.89235 7.53366L4.34906 9.00488V11.9473L8.72351 14.4585V19.481L11.2668 20.9522L13.8101 19.481V14.4585L18.1846 11.9473V9.00488ZM18.1846 16.9698V14.0273L15.6413 15.4985V18.441L18.1846 16.9698ZM19.9903 18.0098L15.6159 20.521V23.4634L22.5336 19.481V11.5161L19.9903 12.9873V18.0098ZM17.447 6.49366L19.9903 7.96488V10.9073L22.5336 9.4361V6.49366L19.9903 5.02244L17.447 6.49366ZM8.72351 21.5863V24.5288L11.2668 26L13.8101 24.5288V21.5863L11.2668 23.0576L8.72351 21.5863ZM4.34906 16.9698L6.89235 18.441V15.4985L4.34906 14.0273V16.9698ZM8.72351 6.49366L11.2668 7.96488L13.8101 6.49366L11.2668 5.02244L8.72351 6.49366ZM2.54329 7.96488L5.08659 6.49366L2.54329 5.02244L0 6.49366V9.4361L2.54329 10.9073V7.96488ZM2.54329 12.9873L0 11.5161V19.481L6.91775 23.4634V20.521L2.54329 18.0098V12.9873Z" fill="#F0B90B"/>
<path d="M39.7466 20.5427V18.0009H34.0019L39.7466 11.6776V9.46645H30.3029V12.0082H35.841L30.1169 18.3316V20.5427H39.7466Z" fill="#F0B90B"/>
<path d="M52.8578 20.5427L48.4976 13.8267L52.7132 9.46645H48.9522L45.2739 13.496V5.45752H42.1329V20.5427H45.2739V17.1743L46.3692 16.0171L49.2622 20.5427H52.8578Z" fill="#F0B90B"/>
<path d="M66.9882 16.5751V16.5337C66.9882 14.5913 65.955 13.62 64.2812 12.9794C65.3144 12.4008 66.1823 11.4916 66.1823 9.85908V9.81775C66.1823 7.54464 64.3638 6.07746 61.4088 6.07746H54.6928V20.5427H61.5741C64.8391 20.5427 66.9882 19.2201 66.9882 16.5751ZM63.0206 10.3964C63.0206 11.4709 62.132 11.9255 60.7268 11.9255H57.7925V8.86718H60.9335C62.2767 8.86718 63.0206 9.40445 63.0206 10.355V10.3964ZM63.8265 16.1824C63.8265 17.257 62.9793 17.7529 61.5741 17.7529H57.7925V14.5706H61.4708C63.1033 14.5706 63.8265 15.1699 63.8265 16.1411V16.1824Z" fill="#F0B90B"/>
<path d="M82.4594 20.5427V6.07746H79.3184V14.9839L72.5404 6.07746H69.606V20.5427H72.747V11.3469L79.7523 20.5427H82.4594Z" fill="#F0B90B"/>
<path d="M98.2273 16.5751V16.5337C98.2273 14.5913 97.194 13.62 95.5202 12.9794C96.5534 12.4008 97.4213 11.4916 97.4213 9.85908V9.81775C97.4213 7.54464 95.6029 6.07746 92.6478 6.07746H85.9318V20.5427H92.8131C96.0781 20.5427 98.2273 19.2201 98.2273 16.5751ZM94.2597 10.3964C94.2597 11.4709 93.3711 11.9255 91.9659 11.9255H89.0315V8.86718H92.1725C93.5157 8.86718 94.2597 9.40445 94.2597 10.355V10.3964ZM95.0656 16.1824C95.0656 17.257 94.2183 17.7529 92.8131 17.7529H89.0315V14.5706H92.7098C94.3423 14.5706 95.0656 15.1699 95.0656 16.1411V16.1824Z" fill="#F0B90B"/>
</svg>
